<svg xmlns="http://www.w3.org/2000/svg" viewBox="0 0 128 128" fill="none">
  <rect width="128" height="128" rx="24" fill="#D98F75"/>
  <g transform="translate(24, 20)">
    <!-- Cérebro estilizado -->
    <path d="M40 15 C30 10, 20 12, 15 20 C10 28, 12 38, 15 45 C10 50, 8 58, 12 65 C14 70, 18 75, 25 78 L28 78 L28 75 C28 70, 30 65, 35 62" 
          stroke="#FFF8F0" stroke-width="3.5" fill="none" stroke-linecap="round" stroke-linejoin="round"/>
    
    <path d="M40 15 C50 10, 60 12, 65 20 C70 28, 68 38, 65 45 C70 50, 72 58, 68 65 C66 70, 62 75, 55 78 L52 78 L52 75 C52 70, 50 65, 45 62" 
          stroke="#FFF8F0" stroke-width="3.5" fill="none" stroke-linecap="round" stroke-linejoin="round"/>
    
    <!-- Detalhes cerebrais -->
    <path d="M25 30 Q30 35, 28 40" stroke="#FFF8F0" stroke-width="2.5" fill="none" stroke-linecap="round"/>
    <path d="M35 25 Q38 30, 36 35" stroke="#FFF8F0" stroke-width="2.5" fill="none" stroke-linecap="round"/>
    <path d="M45 25 Q42 30, 44 35" stroke="#FFF8F0" stroke-width="2.5" fill="none" stroke-linecap="round"/>
    <path d="M55 30 Q50 35, 52 40" stroke="#FFF8F0" stroke-width="2.5" fill="none" stroke-linecap="round"/>
    
    <path d="M20 50 Q25 52, 23 56" stroke="#FFF8F0" stroke-width="2.5" fill="none" stroke-linecap="round"/>
    <path d="M60 50 Q55 52, 57 56" stroke="#FFF8F0" stroke-width="2.5" fill="none" stroke-linecap="round"/>
    
    <!-- Linha central -->
    <path d="M40 18 L40 76" stroke="#FFF8F0" stroke-width="2" fill="none" stroke-linecap="round" opacity="0.6"/>
  </g>
</svg>
